<svg style="" width="30.593750" height="26.937500" version="1.1" xmlns="http://www.w3.org/2000/svg">
<path d="M28.000000 2.531250 L28.000000 2.531250 C27.208329 1.718746 26.296880 1.093752 25.265625 0.656250 C24.234370 0.218748 23.145839 -0.000000 22.000000 -0.000000 L22.000000 -0.000000 C20.874994 -0.000000 19.770839 0.218748 18.687500 0.656250 C17.604161 1.093752 16.666671 1.718746 15.875000 2.531250 C15.875000 2.531250 15.875000 2.531250 15.875000 2.531250 C15.875000 2.531250 15.875000 2.531250 15.875000 2.531250 L15.343750 3.062500 L14.812500 2.531250 C14.020829 1.718746 13.098964 1.093752 12.046875 0.656250 C10.994786 0.218748 9.875006 -0.000000 8.687500 -0.000000 C7.541661 -0.000000 6.453130 0.218748 5.421875 0.656250 C4.390620 1.093752 3.479171 1.718746 2.687500 2.531250 C1.874996 3.322921 1.223961 4.260411 0.734375 5.343750 C0.244789 6.427089 0.000000 7.531244 0.000000 8.656250 C0.000000 9.781256 0.223956 10.885411 0.671875 11.968750 C1.119794 13.052089 1.739579 13.989579 2.531250 14.781250 L14.281250 26.531250 C14.406251 26.656251 14.541666 26.755208 14.687500 26.828125 C14.833334 26.901042 15.010416 26.937500 15.218750 26.937500 C15.406251 26.937500 15.572916 26.901042 15.718750 26.828125 C15.864584 26.755208 16.010416 26.656251 16.156250 26.531250 L27.875000 14.781250 C28.770838 13.947913 29.447914 13.000005 29.906250 11.937500 C30.364586 10.874995 30.593750 9.781256 30.593750 8.656250 C30.593750 7.531244 30.385419 6.437505 29.968750 5.375000 C29.531248 4.312495 28.875004 3.364587 28.000000 2.531250 Z M26.156250 12.937500 L15.343750 23.718750 L4.531250 12.937500 C3.343744 11.729161 2.750000 10.302092 2.750000 8.656250 C2.750000 7.010408 3.343744 5.583339 4.531250 4.375000 C5.072919 3.791664 5.713538 3.359376 6.453125 3.078125 C7.192712 2.796874 7.937496 2.656250 8.687500 2.656250 C9.479171 2.656250 10.234371 2.796874 10.953125 3.078125 C11.671879 3.359376 12.333330 3.791664 12.937500 4.375000 L14.406250 5.843750 C14.677085 6.114585 14.989582 6.250000 15.343750 6.250000 C15.697918 6.250000 16.010415 6.114585 16.281250 5.843750 L17.625000 4.375000 C17.625000 4.375000 17.625000 4.375000 17.625000 4.375000 C17.625000 4.375000 17.625000 4.375000 17.625000 4.375000 C18.208336 3.854164 18.869788 3.437502 19.609375 3.125000 C20.348962 2.812498 21.145829 2.656250 22.000000 2.656250 C22.000000 2.656250 22.000000 2.656250 22.000000 2.656250 C22.000000 2.656250 22.000000 2.656250 22.000000 2.656250 C22.812504 2.656250 23.578121 2.812498 24.296875 3.125000 C25.015629 3.437502 25.677080 3.854164 26.281250 4.375000 L26.281250 4.375000 C26.802086 4.979170 27.218748 5.645830 27.531250 6.375000 C27.843752 7.104170 28.000000 7.864579 28.000000 8.656250 C28.000000 9.447921 27.838543 10.208330 27.515625 10.937500 C27.192707 11.666670 26.739586 12.333330 26.156250 12.937500 Z M31.343750 26.656250" style="fill:black"/>
</svg>