<svg style="" width="27.031250" height="27.031250" version="1.1" xmlns="http://www.w3.org/2000/svg">
<path d="M26.593750 24.468750 L20.656250 18.531250 C21.406254 17.572912 21.989581 16.494798 22.406250 15.296875 C22.822919 14.098952 23.031250 12.843757 23.031250 11.531250 C23.031250 9.927075 22.729170 8.427090 22.125000 7.031250 C21.520830 5.635410 20.697922 4.416672 19.656250 3.375000 C18.614578 2.333328 17.395840 1.510420 16.000000 0.906250 C14.604160 0.302080 13.114591 -0.000000 11.531250 -0.000000 C9.927075 -0.000000 8.427090 0.302080 7.031250 0.906250 C5.635410 1.510420 4.416672 2.333328 3.375000 3.375000 C2.333328 4.416672 1.510420 5.635410 0.906250 7.031250 C0.302080 8.427090 0.000000 9.927075 0.000000 11.531250 C0.000000 13.114591 0.302080 14.604160 0.906250 16.000000 C1.510420 17.395840 2.333328 18.614578 3.375000 19.656250 C4.416672 20.697922 5.635410 21.520830 7.031250 22.125000 C8.427090 22.729170 9.927075 23.031250 11.531250 23.031250 C12.843757 23.031250 14.098952 22.817710 15.296875 22.390625 C16.494798 21.963540 17.583328 21.375004 18.562500 20.625000 L18.531250 20.656250 L24.468750 26.593750 C24.614584 26.739584 24.776041 26.848958 24.953125 26.921875 C25.130209 26.994792 25.322916 27.031250 25.531250 27.031250 C25.947919 27.031250 26.302082 26.885418 26.593750 26.593750 C26.885418 26.302082 27.031250 25.947919 27.031250 25.531250 C27.031250 25.322916 26.994792 25.130209 26.921875 24.953125 C26.848958 24.776041 26.739584 24.614584 26.593750 24.468750 L26.593750 24.468750 Z M3.031250 11.531250 C3.031250 10.364577 3.249998 9.260422 3.687500 8.218750 C4.145836 7.197912 4.760413 6.302087 5.531250 5.531250 C6.302087 4.760413 7.197912 4.145836 8.218750 3.687500 C9.260422 3.249998 10.364577 3.031250 11.531250 3.031250 C12.697922 3.031250 13.802078 3.249998 14.843750 3.687500 C15.864588 4.145836 16.760413 4.760413 17.531250 5.531250 C18.302087 6.302087 18.916664 7.197912 19.375000 8.218750 C19.812502 9.260422 20.031250 10.364577 20.031250 11.531250 C20.031250 12.697923 19.812502 13.802078 19.375000 14.843750 C18.916664 15.864588 18.302087 16.760413 17.531250 17.531250 C16.760413 18.302087 15.864588 18.916664 14.843750 19.375000 C13.802078 19.812502 12.697922 20.031250 11.531250 20.031250 L11.531250 20.031250 C10.364577 20.031250 9.260422 19.812502 8.218750 19.375000 C7.197912 18.916664 6.302087 18.302087 5.531250 17.531250 C4.760413 16.760413 4.145836 15.864588 3.687500 14.843750 C3.249998 13.802078 3.031250 12.697923 3.031250 11.531250 Z M29.531250 27.531250" style="fill:black"/>
</svg>