<svg style="" width="26.687500" height="18.656250" version="1.1" xmlns="http://www.w3.org/2000/svg">
<path d="M25.343750 8.000000 L1.343750 8.000000 C0.947915 8.000000 0.625001 8.119790 0.375000 8.359375 C0.124999 8.598960 0.000000 8.916665 0.000000 9.312500 C0.000000 9.729169 0.124999 10.057290 0.375000 10.296875 C0.625001 10.536460 0.947915 10.656250 1.343750 10.656250 L25.343750 10.656250 C25.739585 10.656250 26.062499 10.536460 26.312500 10.296875 C26.562501 10.057290 26.687500 9.729169 26.687500 9.312500 C26.687500 8.916665 26.562501 8.598960 26.312500 8.359375 C26.062499 8.119790 25.739585 8.000000 25.343750 8.000000 Z M1.343750 2.656250 L25.343750 2.656250 C25.739585 2.656250 26.062499 2.536460 26.312500 2.296875 C26.562501 2.057290 26.687500 1.729169 26.687500 1.312500 C26.687500 0.916665 26.562501 0.598960 26.312500 0.359375 C26.062499 0.119790 25.739585 -0.000000 25.343750 -0.000000 L1.343750 -0.000000 C0.947915 -0.000000 0.625001 0.119790 0.375000 0.359375 C0.124999 0.598960 0.000000 0.916665 0.000000 1.312500 C0.000000 1.729169 0.124999 2.057290 0.375000 2.296875 C0.625001 2.536460 0.947915 2.656250 1.343750 2.656250 Z M25.343750 16.000000 L1.343750 16.000000 C0.947915 16.000000 0.625001 16.119790 0.375000 16.359375 C0.124999 16.598960 0.000000 16.916665 0.000000 17.312500 C0.000000 17.729169 0.124999 18.057290 0.375000 18.296875 C0.625001 18.536460 0.947915 18.656250 1.343750 18.656250 L25.343750 18.656250 C25.739585 18.656250 26.062499 18.536460 26.312500 18.296875 C26.562501 18.057290 26.687500 17.729169 26.687500 17.312500 C26.687500 16.916665 26.562501 16.598960 26.312500 16.359375 C26.062499 16.119790 25.739585 16.000000 25.343750 16.000000 Z M29.343750 22.656250" style="fill:black"/>
</svg>