<svg style="" width="24.000000" height="25.343750" version="1.1" xmlns="http://www.w3.org/2000/svg">
<path d="M6.000000 6.000000 C6.000000 7.666675 6.588536 9.083327 7.765625 10.250000 C8.942714 11.416673 10.354158 12.000000 12.000000 12.000000 C13.645842 12.000000 15.057286 11.416673 16.234375 10.250000 C17.411464 9.083327 18.000000 7.666675 18.000000 6.000000 C18.000000 4.354158 17.411464 2.942714 16.234375 1.765625 C15.057286 0.588536 13.645842 -0.000000 12.000000 -0.000000 C10.354158 -0.000000 8.942714 0.588536 7.765625 1.765625 C6.588536 2.942714 6.000000 4.354158 6.000000 6.000000 Z M22.656250 25.343750 L24.000000 25.343750 L24.000000 24.000000 C24.000000 22.729160 23.750003 21.520839 23.250000 20.375000 C22.770831 19.249994 22.109379 18.265629 21.265625 17.421875 C20.421871 16.578121 19.427089 15.906253 18.281250 15.406250 C17.156244 14.927081 15.947923 14.687500 14.656250 14.687500 L9.343750 14.687500 C8.052077 14.687500 6.843756 14.927081 5.718750 15.406250 C4.572911 15.906253 3.578129 16.578121 2.734375 17.421875 C1.890621 18.265629 1.229169 19.249994 0.750000 20.375000 C0.249998 21.520839 0.000000 22.729160 0.000000 24.000000 L0.000000 25.343750 L22.656250 25.343750 Z M28.000000 27.343750" style="fill:black"/>
</svg>